<?xml version="1.0" encoding="UTF-8"?>
<svg width="128px" height="128px" viewBox="0 0 128 128" version="1.1" xmlns="http://www.w3.org/2000/svg" xmlns:xlink="http://www.w3.org/1999/xlink">
    <g id="Page-1" stroke="none" stroke-width="1" fill="none" fill-rule="evenodd">
        <path d="M64,0 C99.346224,2.164332e-15 128,28.653776 128,64 C128,99.346224 99.346224,128 64,128 C28.653776,128 4.32866401e-15,99.346224 0,64 C-4.32866401e-15,28.653776 28.653776,6.49299601e-15 64,0 Z M95,56 L92,56 L92,47 C92,31.962 78.8,19.273 64,19 C63.6,19 64.4,19 64,19 C49.2,19.273 36,31.962 36,47 L36,56 L33,56 C32.1745424,55.8855909 31.3431751,56.1646423 30.7539087,56.7539087 C30.1646423,57.3431751 29.8855909,58.1745424 30,59 L30,106 C30,108.022 30.989,109 33,109 L95,109 C97,109 98,108.015 98,106 L98,59 C98.1122634,58.1750088 97.8325096,57.3449568 97.2437764,56.7562236 C96.6550432,56.1674904 95.8249912,55.8877366 95,56 L95,56 Z M81,56 L47,56 L47,47 C47.0359274,37.6609328 54.601283,30.1008615 63.9403729,30.0714596 C73.2794629,30.0420577 80.8922703,37.5543442 80.987,46.893 L81,56 Z M44,109 L44,106 C44.0173463,103.257071 45.5591941,100.751569 48,99.5 L56.5,95 C57.219,94.613 57,93.807 57,93 L57,90.5 C55.7255769,88.6565504 54.7943181,86.5982277 54.251,84.424 C53.452157,83.8013585 52.9841664,82.8458316 52.982,81.833 L52.982,78.5 C53.0538363,77.727898 53.418008,77.0124328 54,76.5 L54,73 C53.862343,71.0167407 54.4289426,69.0485153 55.6,67.442 C57.341,65.49 59.666,64.5 63.5,64.5 C67.334,64.5 69.656,65.49 71.4,67.442 C72.5569785,69.055371 73.1220879,71.0184199 73,73 L73,76.5 C73.5772004,77.0139719 73.9351427,77.7298565 74,78.5 L74,82 C74.0016665,82.9632787 73.5351172,83.8672879 72.749,84.424 C72.2056819,86.5982277 71.2744231,88.6565504 70,90.5 L70,93 C70,94.805 70.615,94.792 71,95 C71.385,95.208 79.5,99.5 79.5,99.5 C82.1264164,100.619484 83.8766617,103.147616 84,106 L84,109 L44,109 L44,109 Z" id="Forma_1" fill="#0073AA"></path>
    </g>
</svg>